<mxfile host="app.diagrams.net" modified="2021-08-26T13:08:52.763Z" agent="5.0 (Macintosh; Intel Mac OS X 10_15_7) AppleWebKit/537.36 (KHTML, like Gecko) Chrome/92.0.4515.159 Safari/537.36" etag="wtUkQkomaIpymJH7y3qc" version="14.9.7" type="github">
  <diagram id="fgarB5VbR1tOXagUcEyJ" name="第 1 页">
    <mxGraphModel dx="1892" dy="1178" grid="1" gridSize="10" guides="1" tooltips="1" connect="1" arrows="1" fold="1" page="1" pageScale="1" pageWidth="827" pageHeight="1169" math="0" shadow="0">
      <root>
        <mxCell id="0" />
        <mxCell id="1" parent="0" />
        <mxCell id="K4YG1CPKGOMm2qTtbfon-1" value="" style="rounded=0;whiteSpace=wrap;html=1;" vertex="1" parent="1">
          <mxGeometry x="60" y="80" width="640" height="1020" as="geometry" />
        </mxCell>
        <mxCell id="K4YG1CPKGOMm2qTtbfon-7" value="" style="edgeStyle=orthogonalEdgeStyle;rounded=0;orthogonalLoop=1;jettySize=auto;html=1;" edge="1" parent="1" source="K4YG1CPKGOMm2qTtbfon-2" target="K4YG1CPKGOMm2qTtbfon-6">
          <mxGeometry relative="1" as="geometry" />
        </mxCell>
        <mxCell id="K4YG1CPKGOMm2qTtbfon-2" value="" style="rounded=0;whiteSpace=wrap;html=1;" vertex="1" parent="1">
          <mxGeometry x="310" y="110" width="120" height="60" as="geometry" />
        </mxCell>
        <mxCell id="K4YG1CPKGOMm2qTtbfon-3" value="创建/批量导入客户" style="text;html=1;strokeColor=none;fillColor=none;align=center;verticalAlign=middle;whiteSpace=wrap;rounded=0;" vertex="1" parent="1">
          <mxGeometry x="316" y="120" width="110" height="40" as="geometry" />
        </mxCell>
        <mxCell id="K4YG1CPKGOMm2qTtbfon-9" value="" style="edgeStyle=orthogonalEdgeStyle;rounded=0;orthogonalLoop=1;jettySize=auto;html=1;" edge="1" parent="1" source="K4YG1CPKGOMm2qTtbfon-6" target="K4YG1CPKGOMm2qTtbfon-8">
          <mxGeometry relative="1" as="geometry" />
        </mxCell>
        <mxCell id="K4YG1CPKGOMm2qTtbfon-11" value="" style="edgeStyle=orthogonalEdgeStyle;rounded=0;orthogonalLoop=1;jettySize=auto;html=1;" edge="1" parent="1" source="K4YG1CPKGOMm2qTtbfon-6" target="K4YG1CPKGOMm2qTtbfon-10">
          <mxGeometry relative="1" as="geometry" />
        </mxCell>
        <mxCell id="K4YG1CPKGOMm2qTtbfon-13" value="" style="edgeStyle=orthogonalEdgeStyle;rounded=0;orthogonalLoop=1;jettySize=auto;html=1;" edge="1" parent="1" source="K4YG1CPKGOMm2qTtbfon-6" target="K4YG1CPKGOMm2qTtbfon-12">
          <mxGeometry relative="1" as="geometry" />
        </mxCell>
        <mxCell id="K4YG1CPKGOMm2qTtbfon-6" value="触达" style="rounded=0;whiteSpace=wrap;html=1;" vertex="1" parent="1">
          <mxGeometry x="310" y="250" width="120" height="60" as="geometry" />
        </mxCell>
        <mxCell id="K4YG1CPKGOMm2qTtbfon-8" value="短信" style="rounded=0;whiteSpace=wrap;html=1;" vertex="1" parent="1">
          <mxGeometry x="110" y="250" width="120" height="60" as="geometry" />
        </mxCell>
        <mxCell id="K4YG1CPKGOMm2qTtbfon-10" value="留资卡片" style="rounded=0;whiteSpace=wrap;html=1;" vertex="1" parent="1">
          <mxGeometry x="510" y="250" width="120" height="60" as="geometry" />
        </mxCell>
        <mxCell id="K4YG1CPKGOMm2qTtbfon-15" value="" style="edgeStyle=orthogonalEdgeStyle;rounded=0;orthogonalLoop=1;jettySize=auto;html=1;" edge="1" parent="1" source="K4YG1CPKGOMm2qTtbfon-12" target="K4YG1CPKGOMm2qTtbfon-14">
          <mxGeometry relative="1" as="geometry" />
        </mxCell>
        <mxCell id="K4YG1CPKGOMm2qTtbfon-12" value="云呼" style="rounded=0;whiteSpace=wrap;html=1;" vertex="1" parent="1">
          <mxGeometry x="310" y="390" width="120" height="60" as="geometry" />
        </mxCell>
        <mxCell id="K4YG1CPKGOMm2qTtbfon-19" value="Y" style="edgeStyle=orthogonalEdgeStyle;rounded=0;orthogonalLoop=1;jettySize=auto;html=1;" edge="1" parent="1" source="K4YG1CPKGOMm2qTtbfon-14" target="K4YG1CPKGOMm2qTtbfon-18">
          <mxGeometry relative="1" as="geometry" />
        </mxCell>
        <mxCell id="K4YG1CPKGOMm2qTtbfon-26" value="N" style="edgeStyle=orthogonalEdgeStyle;rounded=0;orthogonalLoop=1;jettySize=auto;html=1;" edge="1" parent="1" source="K4YG1CPKGOMm2qTtbfon-14" target="K4YG1CPKGOMm2qTtbfon-24">
          <mxGeometry relative="1" as="geometry" />
        </mxCell>
        <mxCell id="K4YG1CPKGOMm2qTtbfon-14" value="接通" style="rhombus;whiteSpace=wrap;html=1;rounded=0;" vertex="1" parent="1">
          <mxGeometry x="330" y="520" width="80" height="80" as="geometry" />
        </mxCell>
        <mxCell id="K4YG1CPKGOMm2qTtbfon-21" value="" style="edgeStyle=orthogonalEdgeStyle;rounded=0;orthogonalLoop=1;jettySize=auto;html=1;" edge="1" parent="1" source="K4YG1CPKGOMm2qTtbfon-18" target="K4YG1CPKGOMm2qTtbfon-20">
          <mxGeometry relative="1" as="geometry" />
        </mxCell>
        <mxCell id="K4YG1CPKGOMm2qTtbfon-18" value="房屋档案及用户信息维护" style="whiteSpace=wrap;html=1;rounded=0;" vertex="1" parent="1">
          <mxGeometry x="310" y="690" width="120" height="60" as="geometry" />
        </mxCell>
        <mxCell id="K4YG1CPKGOMm2qTtbfon-23" value="Y" style="edgeStyle=orthogonalEdgeStyle;rounded=0;orthogonalLoop=1;jettySize=auto;html=1;" edge="1" parent="1" source="K4YG1CPKGOMm2qTtbfon-20" target="K4YG1CPKGOMm2qTtbfon-22">
          <mxGeometry relative="1" as="geometry" />
        </mxCell>
        <mxCell id="K4YG1CPKGOMm2qTtbfon-25" value="N" style="edgeStyle=orthogonalEdgeStyle;rounded=0;orthogonalLoop=1;jettySize=auto;html=1;" edge="1" parent="1" source="K4YG1CPKGOMm2qTtbfon-20" target="K4YG1CPKGOMm2qTtbfon-24">
          <mxGeometry relative="1" as="geometry" />
        </mxCell>
        <mxCell id="K4YG1CPKGOMm2qTtbfon-20" value="有意向" style="rhombus;whiteSpace=wrap;html=1;rounded=0;" vertex="1" parent="1">
          <mxGeometry x="330" y="820" width="80" height="80" as="geometry" />
        </mxCell>
        <mxCell id="K4YG1CPKGOMm2qTtbfon-22" value="下派到定制/直营/家装" style="whiteSpace=wrap;html=1;rounded=0;" vertex="1" parent="1">
          <mxGeometry x="310" y="990" width="120" height="60" as="geometry" />
        </mxCell>
        <mxCell id="K4YG1CPKGOMm2qTtbfon-31" value="" style="edgeStyle=orthogonalEdgeStyle;rounded=0;orthogonalLoop=1;jettySize=auto;html=1;" edge="1" parent="1" source="K4YG1CPKGOMm2qTtbfon-24">
          <mxGeometry relative="1" as="geometry">
            <mxPoint x="370" y="490" as="targetPoint" />
            <Array as="points">
              <mxPoint x="540" y="490" />
            </Array>
          </mxGeometry>
        </mxCell>
        <mxCell id="K4YG1CPKGOMm2qTtbfon-24" value="待办列表" style="whiteSpace=wrap;html=1;rounded=0;" vertex="1" parent="1">
          <mxGeometry x="480" y="529" width="120" height="60" as="geometry" />
        </mxCell>
      </root>
    </mxGraphModel>
  </diagram>
</mxfile>
